<svg width="628" height="309" xmlns="http://www.w3.org/2000/svg" xmlns:xlink="http://www.w3.org/1999/xlink" overflow="hidden"><g transform="translate(-166 -171)"><rect x="487.5" y="215.5" width="300" height="200" stroke="#000000" stroke-width="1.33333" stroke-miterlimit="8" fill="#EDEDED"/><text font-family="Calibri,Calibri_MSFontService,sans-serif" font-weight="700" font-size="19" transform="translate(498.716 236)">DBMS</text><rect x="612.5" y="245.5" width="170" height="45" stroke="#172C51" stroke-width="1.33333" stroke-miterlimit="8" fill="#FFFFFF"/><rect x="612.5" y="360.5" width="170" height="49" stroke="#172C51" stroke-width="1.33333" stroke-miterlimit="8" fill="#FFFFFF"/><rect x="612.5" y="296.5" width="170" height="49" stroke="#172C51" stroke-width="1.33333" stroke-miterlimit="8" fill="#FFFFFF"/><rect x="170.5" y="214.5" width="300" height="200" stroke="#000000" stroke-width="1.33333" stroke-miterlimit="8" fill="#EDEDED"/><text font-family="Calibri,Calibri_MSFontService,sans-serif" font-weight="700" font-size="19" transform="translate(181.187 235)">DBMS</text><rect x="295.5" y="245.5" width="170" height="45" stroke="#172C51" stroke-width="1.33333" stroke-miterlimit="8" fill="#FFFFFF"/><path d="M692.5 392.5C692.5 390.291 694.291 388.5 696.5 388.5 698.709 388.5 700.5 390.291 700.5 392.5 700.5 394.709 698.709 396.5 696.5 396.5 694.291 396.5 692.5 394.709 692.5 392.5Z" stroke="#172C51" stroke-width="1.33333" stroke-miterlimit="8" fill="#4472C4" fill-rule="evenodd"/><path d="M0.688118-0.725599 6.68998 4.96623 5.31374 6.41743-0.688118 0.725599ZM7.78686 1.87195 8.90425 8.4443 2.28192 7.67674Z" fill="#0B6DB7" transform="matrix(-1 0 0 1 687.904 266)"/><path d="M704.558 265.17 714.228 271.669 713.112 273.329 703.442 266.83ZM714.795 268.436 716.99 274.731 710.332 275.075Z" fill="#0B6DB7"/><path d="M0 0 46.0944 1.42016" stroke="#000000" stroke-width="1.33333" stroke-miterlimit="8" stroke-dasharray="1.33333 1.33333" fill="none" fill-rule="evenodd" transform="matrix(1 0 0 -1 645.5 393.92)"/><path d="M0.999995-0.00330693 1.05343 16.1563-0.946556 16.1629-0.999995 0.00330693ZM4.04901 14.813 0.0666667 20.1596-3.95095 14.8395Z" fill="#1C9249" transform="matrix(-1 0 0 1 723.067 404)"/><path d="M685.5 260.254C685.5 257.076 688.076 254.5 691.254 254.5L700.746 254.5C703.924 254.5 706.5 257.076 706.5 260.254L706.5 261.746C706.5 264.924 703.924 267.5 700.746 267.5L691.254 267.5C688.076 267.5 685.5 264.924 685.5 261.746Z" stroke="#000000" stroke-width="1.33333" stroke-miterlimit="8" fill="#B82647" fill-rule="evenodd"/><path d="M692.103 258.142 692.103 258.142 696 261 699.897 258.142 699.897 258.142 696 261 699.897 263.858 699.897 263.858 696 261 692.103 263.858 692.103 263.858 696 261Z" stroke="#FFFFFF" stroke-miterlimit="8" fill="#FFFFFF" fill-rule="evenodd"/><path d="M660.5 280.254C660.5 277.076 663.076 274.5 666.254 274.5L675.746 274.5C678.924 274.5 681.5 277.076 681.5 280.254L681.5 281.746C681.5 284.924 678.924 287.5 675.746 287.5L666.254 287.5C663.076 287.5 660.5 284.924 660.5 281.746Z" stroke="#000000" stroke-width="1.33333" stroke-miterlimit="8" fill="#0B6DB7" fill-rule="evenodd"/><path d="M714.5 280.254C714.5 277.076 717.076 274.5 720.254 274.5L729.746 274.5C732.924 274.5 735.5 277.076 735.5 280.254L735.5 281.746C735.5 284.924 732.924 287.5 729.746 287.5L720.254 287.5C717.076 287.5 714.5 284.924 714.5 281.746Z" stroke="#000000" stroke-width="1.33333" stroke-miterlimit="8" fill="#0B6DB7" fill-rule="evenodd"/><path d="M625.5 334.697C625.5 331.275 628.275 328.5 631.697 328.5L639.303 328.5C642.726 328.5 645.5 331.275 645.5 334.697L645.5 336.303C645.5 339.726 642.726 342.5 639.303 342.5L631.697 342.5C628.275 342.5 625.5 339.726 625.5 336.303Z" stroke="#000000" stroke-width="1.33333" stroke-miterlimit="8" fill="#0B6DB7" fill-rule="evenodd"/><path d="M660.5 309.254C660.5 306.076 663.076 303.5 666.254 303.5L675.746 303.5C678.924 303.5 681.5 306.076 681.5 309.254L681.5 310.746C681.5 313.924 678.924 316.5 675.746 316.5L666.254 316.5C663.076 316.5 660.5 313.924 660.5 310.746Z" stroke="#000000" stroke-width="1.33333" stroke-miterlimit="8" fill="#B82647" fill-rule="evenodd"/><path d="M667.103 307.142 667.103 307.142 671 310 674.897 307.142 674.897 307.142 671 310 674.897 312.858 674.897 312.858 671 310 667.103 312.858 667.103 312.858 671 310Z" stroke="#FFFFFF" stroke-miterlimit="8" fill="#FFFFFF" fill-rule="evenodd"/><path d="M655.5 334.697C655.5 331.275 658.275 328.5 661.697 328.5L669.303 328.5C672.726 328.5 675.5 331.275 675.5 334.697L675.5 336.303C675.5 339.726 672.726 342.5 669.303 342.5L661.697 342.5C658.275 342.5 655.5 339.726 655.5 336.303Z" stroke="#000000" stroke-width="1.33333" stroke-miterlimit="8" fill="#0B6DB7" fill-rule="evenodd"/><path d="M712.5 334.697C712.5 331.275 715.275 328.5 718.697 328.5L727.303 328.5C730.726 328.5 733.5 331.275 733.5 334.697L733.5 336.303C733.5 339.726 730.726 342.5 727.303 342.5L718.697 342.5C715.275 342.5 712.5 339.726 712.5 336.303Z" stroke="#000000" stroke-width="1.33333" stroke-miterlimit="8" fill="#0B6DB7" fill-rule="evenodd"/><path d="M695.833 202 695.833 249.65 694.167 249.65 694.167 202ZM699 248.317 695 253.65 691 248.317Z"/><path d="M714.5 309.697C714.5 306.275 717.275 303.5 720.697 303.5L729.303 303.5C732.726 303.5 735.5 306.275 735.5 309.697L735.5 311.303C735.5 314.726 732.726 317.5 729.303 317.5L720.697 317.5C717.275 317.5 714.5 314.726 714.5 311.303Z" stroke="#000000" stroke-width="1.33333" stroke-miterlimit="8" fill="#B82647" fill-rule="evenodd"/><path d="M721.103 307.382 721.103 307.382 725 310.5 728.897 307.382 728.897 307.382 725 310.5 728.897 313.618 728.897 313.618 725 310.5 721.103 313.618 721.103 313.618 725 310.5Z" stroke="#FFFFFF" stroke-miterlimit="8" fill="#FFFFFF" fill-rule="evenodd"/><path d="M0.570789-0.821097 16.0645 9.9494 14.9229 11.5916-0.570789 0.821097ZM16.682 6.72505 18.7781 13.0536 12.1157 13.2938Z" fill="#0B6DB7" transform="matrix(-1 0 0 1 662.778 316)"/><path d="M749.5 334.697C749.5 331.275 752.275 328.5 755.697 328.5L764.303 328.5C767.726 328.5 770.5 331.275 770.5 334.697L770.5 336.303C770.5 339.726 767.726 342.5 764.303 342.5L755.697 342.5C752.275 342.5 749.5 339.726 749.5 336.303Z" stroke="#000000" stroke-width="1.33333" stroke-miterlimit="8" fill="#0B6DB7" fill-rule="evenodd"/><path d="M0.903597-0.428384 4.83247 7.85886 3.02528 8.71562-0.903597 0.428384ZM6.97209 5.36891 5.64241 11.9016-0.256687 8.79598Z" fill="#0B6DB7" transform="matrix(-1 0 0 1 670.642 316)"/><path d="M0.988466-0.151446 2.10741 7.1517 0.130474 7.45459-0.988466 0.151446ZM4.87087 5.37941 1.72472 11.257-3.03685 6.59098Z" fill="#0B6DB7" transform="matrix(-1 0 0 1 724.725 317)"/><path d="M729.461 316.113 748.34 325.924 747.418 327.699 728.539 317.887ZM748.54 322.647 751.428 328.656 744.851 329.746Z" fill="#0B6DB7"/><path d="M635.833 360 635.833 382.816 634.167 382.816 634.167 360ZM639 381.483 635 386.816 631 381.483Z"/><path d="M625.5 393.254C625.5 390.076 628.076 387.5 631.254 387.5L639.746 387.5C642.924 387.5 645.5 390.076 645.5 393.254L645.5 394.746C645.5 397.924 642.924 400.5 639.746 400.5L631.254 400.5C628.076 400.5 625.5 397.924 625.5 394.746Z" stroke="#000000" stroke-width="1.33333" stroke-miterlimit="8" fill="#1C9249" fill-rule="evenodd"/><path d="M655.5 374.697C655.5 371.275 658.275 368.5 661.697 368.5L669.303 368.5C672.726 368.5 675.5 371.275 675.5 374.697L675.5 376.303C675.5 379.726 672.726 382.5 669.303 382.5L661.697 382.5C658.275 382.5 655.5 379.726 655.5 376.303Z" stroke="#000000" stroke-width="1.33333" stroke-miterlimit="8" fill="#1C9249" fill-rule="evenodd"/><path d="M712.5 397.254C712.5 394.076 715.076 391.5 718.254 391.5L727.746 391.5C730.924 391.5 733.5 394.076 733.5 397.254L733.5 398.746C733.5 401.924 730.924 404.5 727.746 404.5L718.254 404.5C715.076 404.5 712.5 401.924 712.5 398.746Z" stroke="#000000" stroke-width="1.33333" stroke-miterlimit="8" fill="#1C9249" fill-rule="evenodd"/><path d="M749.5 375.254C749.5 372.076 752.076 369.5 755.254 369.5L764.746 369.5C767.924 369.5 770.5 372.076 770.5 375.254L770.5 376.746C770.5 379.924 767.924 382.5 764.746 382.5L755.254 382.5C752.076 382.5 749.5 379.924 749.5 376.746Z" stroke="#000000" stroke-width="1.33333" stroke-miterlimit="8" fill="#1C9249" fill-rule="evenodd"/><path d="M671.833 287 671.833 298.882 670.167 298.882 670.167 287ZM675 297.549 671 302.882 667 297.549Z"/><path d="M724.833 287 724.833 299.365 723.167 299.365 723.167 287ZM728 298.032 724 303.365 720 298.032Z"/><path d="M674.5 379.5 693.037 389.615" stroke="#000000" stroke-width="1.33333" stroke-miterlimit="8" stroke-dasharray="1.33333 1.33333" fill="none" fill-rule="evenodd"/><path d="M713.024 397.98 699.5 395.5" stroke="#000000" stroke-width="1.33333" stroke-miterlimit="8" stroke-dasharray="1.33333 1.33333" fill="none" fill-rule="evenodd"/><path d="M0 0 50.4146 13.4701" stroke="#000000" stroke-width="1.33333" stroke-miterlimit="8" stroke-dasharray="1.33333 1.33333" fill="none" fill-rule="evenodd" transform="matrix(1 0 0 -1 699.5 389.97)"/><path d="M665.833 359 665.833 363.376 664.167 363.376 664.167 359ZM669 362.043 665 367.376 661 362.043Z"/><path d="M723.833 360 723.833 386.849 722.167 386.849 722.167 360ZM727 385.516 723 390.849 719 385.516Z"/><path d="M759.833 359 759.833 363.953 758.167 363.953 758.167 359ZM763 362.619 759 367.953 755 362.619Z"/><rect x="681" y="220" width="25" height="18" fill="#EDEDED"/><text font-family="Cambria Math,Cambria Math_MSFontService,sans-serif" font-weight="400" font-size="19" transform="translate(684.416 232)">ğ‘</text><text font-family="Cambria Math,Cambria Math_MSFontService,sans-serif" font-weight="400" font-size="14" transform="translate(694.049 236)">0</text><text font-family="Cambria Math,Cambria Math_MSFontService,sans-serif" font-weight="400" font-size="19" transform="translate(686.599 377)">ğ‘</text><text font-family="Cambria Math,Cambria Math_MSFontService,sans-serif" font-weight="400" font-size="14" transform="translate(696.232 381)">0</text><path d="M685.5 391.254C685.5 388.076 688.076 385.5 691.254 385.5L700.746 385.5C703.924 385.5 706.5 388.076 706.5 391.254L706.5 392.746C706.5 395.924 703.924 398.5 700.746 398.5L691.254 398.5C688.076 398.5 685.5 395.924 685.5 392.746Z" stroke="#000000" stroke-width="1.33333" stroke-miterlimit="8" fill-rule="evenodd"/><text font-family="Calibri,Calibri_MSFontService,sans-serif" font-weight="700" font-size="19" transform="translate(186.575 462)">(a) Regeneration</text><text font-family="Calibri,Calibri_MSFontService,sans-serif" font-weight="700" font-size="19" transform="translate(314.849 462)">-</text><text font-family="Calibri,Calibri_MSFontService,sans-serif" font-weight="700" font-size="19" transform="translate(320.515 462)">based refinement</text><text font-family="Calibri,Calibri_MSFontService,sans-serif" font-weight="700" font-size="19" transform="translate(529.236 462)">(b) Search</text><text font-family="Calibri,Calibri_MSFontService,sans-serif" font-weight="700" font-size="19" transform="translate(606.636 462)">-</text><text font-family="Calibri,Calibri_MSFontService,sans-serif" font-weight="700" font-size="19" transform="translate(612.302 462)">based refinement</text><text font-family="Calibri,Calibri_MSFontService,sans-serif" font-weight="400" font-size="16" transform="translate(175.868 263)">execution layer 1</text><text font-family="Calibri,Calibri_MSFontService,sans-serif" font-style="italic" font-weight="400" font-size="16" transform="translate(175.868 282)">(check relations)</text><rect x="170.5" y="175.5" width="300" height="27" stroke="#000000" stroke-width="1.33333" stroke-miterlimit="8" fill="#EDEDED"/><text font-family="Calibri,Calibri_MSFontService,sans-serif" font-weight="700" font-size="19" transform="translate(303.896 195)">LLM</text><rect x="295.5" y="360.5" width="170" height="49" stroke="#172C51" stroke-width="1.33333" stroke-miterlimit="8" fill="#FFFFFF"/><text font-family="Calibri,Calibri_MSFontService,sans-serif" font-weight="400" font-size="16" transform="translate(175.868 380)">execution layer N</text><text font-family="Calibri,Calibri_MSFontService,sans-serif" font-style="italic" font-weight="400" font-size="16" transform="translate(175.868 399)">(check types)</text><rect x="295.5" y="296.5" width="170" height="49" stroke="#172C51" stroke-width="1.33333" stroke-miterlimit="8" fill="#FFFFFF"/><text font-family="Calibri,Calibri_MSFontService,sans-serif" font-weight="400" font-size="16" transform="translate(175.868 315)">execution layer 2</text><text font-family="Calibri,Calibri_MSFontService,sans-serif" font-style="italic" font-weight="400" font-size="16" transform="translate(175.868 334)">(check attributes)</text><path d="M307.5 280.697C307.5 277.275 310.275 274.5 313.697 274.5L322.303 274.5C325.726 274.5 328.5 277.275 328.5 280.697L328.5 282.303C328.5 285.726 325.726 288.5 322.303 288.5L313.697 288.5C310.275 288.5 307.5 285.726 307.5 282.303Z" stroke="#000000" stroke-width="1.33333" stroke-miterlimit="8" fill="#B82647" fill-rule="evenodd"/><path d="M314.103 278.382 314.103 278.382 318 281.5 321.897 278.382 321.897 278.382 318 281.5 321.897 284.618 321.897 284.618 318 281.5 314.103 284.618 314.103 284.618 318 281.5Z" stroke="#FFFFFF" stroke-miterlimit="8" fill="#FFFFFF" fill-rule="evenodd"/><path d="M309.833 202 309.833 270.75 308.167 270.75 308.167 202ZM313 269.416 309 274.75 305 269.417Z"/><rect x="296" y="221" width="25" height="18" fill="#EDEDED"/><text font-family="Cambria Math,Cambria Math_MSFontService,sans-serif" font-weight="400" font-size="19" transform="translate(299.127 233)">ğ‘</text><text font-family="Cambria Math,Cambria Math_MSFontService,sans-serif" font-weight="400" font-size="14" transform="translate(308.761 237)">0</text><path d="M0.833333-1.2026e-06 0.833432 68.7498-0.833234 68.7498-0.833333 1.2026e-06ZM4.0001 67.4165 0.000104987 72.7498-3.9999 67.4165Z" transform="matrix(1 0 0 -1 325 274.75)"/><rect x="313" y="248" width="43" height="23" fill="#FFFFFF"/><text fill="#B82647" font-family="Calibri,Calibri_MSFontService,sans-serif" font-style="italic" font-weight="400" font-size="19" transform="translate(315.818 265)">Error</text><path d="M410.5 334.254C410.5 331.076 413.076 328.5 416.254 328.5L424.746 328.5C427.924 328.5 430.5 331.076 430.5 334.254L430.5 335.746C430.5 338.924 427.924 341.5 424.746 341.5L416.254 341.5C413.076 341.5 410.5 338.924 410.5 335.746Z" stroke="#000000" stroke-width="1.33333" stroke-miterlimit="8" fill="#B82647" fill-rule="evenodd"/><path d="M416.103 333.142 416.103 333.142 420 336 423.897 333.142 423.897 333.142 420 336 423.897 338.858 423.897 338.858 420 336 416.103 338.858 416.103 338.858 420 336Z" stroke="#FFFFFF" stroke-miterlimit="8" fill="#FFFFFF" fill-rule="evenodd"/><path d="M412.833 202 412.833 324.266 411.167 324.266 411.167 202ZM416 322.932 412 328.266 408 322.932Z"/><rect x="398" y="222" width="26" height="17" fill="#EDEDED"/><text font-family="Cambria Math,Cambria Math_MSFontService,sans-serif" font-weight="400" font-size="19" transform="translate(401.879 234)">ğ‘</text><text font-family="Cambria Math,Cambria Math_MSFontService,sans-serif" font-weight="400" font-size="14" transform="translate(411.512 237)">2</text><path d="M0.833333-6.92896e-07 0.833435 122.266-0.833232 122.266-0.833333 6.92896e-07ZM4.0001 120.932 0.000104987 126.266-3.9999 120.932Z" transform="matrix(1 0 0 -1 428 328.266)"/><rect x="414" y="300" width="46" height="23" fill="#FFFFFF"/><text fill="#B82647" font-family="Calibri,Calibri_MSFontService,sans-serif" font-style="italic" font-weight="400" font-size="19" transform="translate(418.122 317)">Error</text><path d="M0 0 0.0133333 11.3386" stroke="#000000" stroke-width="2" stroke-miterlimit="8" stroke-dasharray="2 2" fill="none" fill-rule="evenodd" transform="matrix(1 0 0 -1 230 357.339)"/><path d="M0 0 0.0133333 11.3386" stroke="#000000" stroke-width="2" stroke-miterlimit="8" stroke-dasharray="2 2" fill="none" fill-rule="evenodd" transform="matrix(1 0 0 -1 380 357.339)"/><path d="M0 0 0.000104987 32.7867" stroke="#000000" stroke-width="1.66667" stroke-miterlimit="8" fill="none" fill-rule="evenodd" transform="matrix(1 0 0 -1 380 392.787)"/><path d="M362.5 399.254C362.5 396.076 365.076 393.5 368.254 393.5L377.746 393.5C380.924 393.5 383.5 396.076 383.5 399.254L383.5 400.746C383.5 403.924 380.924 406.5 377.746 406.5L368.254 406.5C365.076 406.5 362.5 403.924 362.5 400.746Z" stroke="#000000" stroke-width="1.33333" stroke-miterlimit="8" fill="#B82647" fill-rule="evenodd"/><path d="M369.103 398.142 369.103 398.142 373 401 376.897 398.142 376.897 398.142 373 401 376.897 403.858 376.897 403.858 373 401 369.103 403.858 369.103 403.858 373 401Z" stroke="#FFFFFF" stroke-miterlimit="8" fill="#FFFFFF" fill-rule="evenodd"/><path d="M365 202 365 344.605" stroke="#000000" stroke-width="1.66667" stroke-miterlimit="8" fill="none" fill-rule="evenodd"/><rect x="351" y="222" width="25" height="17" fill="#EDEDED"/><text font-family="Cambria Math,Cambria Math_MSFontService,sans-serif" font-weight="400" font-size="19" transform="translate(354.491 234)">ğ‘</text><text font-family="Cambria Math,Cambria Math_MSFontService,sans-serif" font-weight="400" font-size="14" transform="translate(363.691 237)">1</text><path d="M0.833333-6.13505e-07 0.833435 138.606-0.833231 138.606-0.833333 6.13505e-07ZM4.0001 137.272 0.000104987 142.605-3.9999 137.272Z" transform="matrix(1 0 0 -1 380 344.605)"/><rect x="358" y="366" width="64" height="23" fill="#FFFFFF"/><text fill="#B82647" font-family="Calibri,Calibri_MSFontService,sans-serif" font-style="italic" font-weight="400" font-size="19" transform="translate(371.58 383)">Error</text><path d="M365.833 360 365.833 389.497 364.167 389.497 364.167 360ZM369 388.163 365 393.497 361 388.163Z"/><path d="M0 0 0.0133333 11.3386" stroke="#000000" stroke-width="2" stroke-miterlimit="8" stroke-dasharray="2 2" fill="none" fill-rule="evenodd" transform="matrix(1 0 0 -1 365 357.339)"/><text font-family="Calibri,Calibri_MSFontService,sans-serif" font-weight="400" font-size="16" transform="translate(493.166 263)">execution layer 1</text><text font-family="Calibri,Calibri_MSFontService,sans-serif" font-style="italic" font-weight="400" font-size="16" transform="translate(493.166 282)">(check relations)</text><rect x="487.5" y="175.5" width="300" height="27" stroke="#000000" stroke-width="1.33333" stroke-miterlimit="8" fill="#EDEDED"/><text font-family="Calibri,Calibri_MSFontService,sans-serif" font-weight="700" font-size="19" transform="translate(621.381 195)">LLM</text><text font-family="Calibri,Calibri_MSFontService,sans-serif" font-weight="400" font-size="16" transform="translate(493.166 380)">execution layer N</text><text font-family="Calibri,Calibri_MSFontService,sans-serif" font-style="italic" font-weight="400" font-size="16" transform="translate(493.166 399)">(check types)</text><text font-family="Calibri,Calibri_MSFontService,sans-serif" font-weight="400" font-size="16" transform="translate(493.166 315)">execution layer 2</text><text font-family="Calibri,Calibri_MSFontService,sans-serif" font-style="italic" font-weight="400" font-size="16" transform="translate(493.166 334)">(check attributes)</text><path d="M0 0 0.0133333 11.3386" stroke="#000000" stroke-width="2" stroke-miterlimit="8" stroke-dasharray="2 2" fill="none" fill-rule="evenodd" transform="matrix(1 0 0 -1 547 357.339)"/><text fill="#1C9249" font-family="Calibri,Calibri_MSFontService,sans-serif" font-style="italic" font-weight="400" font-size="19" transform="translate(661.447 437)">Execution result</text><path d="M0 0 0.0133333 11.3386" stroke="#000000" stroke-width="2" stroke-miterlimit="8" stroke-dasharray="2 2" fill="none" fill-rule="evenodd" transform="matrix(1 0 0 -1 635 357.339)"/><path d="M0 0 0.0133333 11.3386" stroke="#000000" stroke-width="2" stroke-miterlimit="8" stroke-dasharray="2 2" fill="none" fill-rule="evenodd" transform="matrix(1 0 0 -1 665 357.339)"/><path d="M0 0 0.0133333 11.3386" stroke="#000000" stroke-width="2" stroke-miterlimit="8" stroke-dasharray="2 2" fill="none" fill-rule="evenodd" transform="matrix(1 0 0 -1 723 357.339)"/><path d="M0 0 0.0133333 11.3386" stroke="#000000" stroke-width="2" stroke-miterlimit="8" stroke-dasharray="2 2" fill="none" fill-rule="evenodd" transform="matrix(1 0 0 -1 759 357.339)"/><path d="M635 341 635 344.999" stroke="#000000" stroke-width="1.66667" stroke-miterlimit="8" fill="none" fill-rule="evenodd"/><path d="M665 341 665 344.999" stroke="#000000" stroke-width="1.66667" stroke-miterlimit="8" fill="none" fill-rule="evenodd"/><path d="M723 341 723 344.999" stroke="#000000" stroke-width="1.66667" stroke-miterlimit="8" fill="none" fill-rule="evenodd"/><path d="M759 341 759 344.999" stroke="#000000" stroke-width="1.66667" stroke-miterlimit="8" fill="none" fill-rule="evenodd"/></g></svg>